<svg width="40" height="41" viewBox="0 0 40 41" fill="none" xmlns="http://www.w3.org/2000/svg">
<rect y="0.516602" width="40" height="40.1354" rx="11.1782" fill="#3692FF"/>
<path d="M19.3143 11.6907C19.8136 13.4162 18.4934 15.3175 16.9801 15.7584C15.4668 16.1993 13.3994 15.2849 12.9001 13.5594C12.4008 11.8339 13.4489 9.44314 14.9622 9.00227C16.9801 8.41439 18.815 9.96523 19.3143 11.6907Z" fill="#222327"/>
<path d="M20.1465 11.6907C19.6472 13.4162 20.9674 15.3175 22.4807 15.7584C23.994 16.1993 26.0614 15.2849 26.5607 13.5594C27.06 11.8339 26.0119 9.44314 24.4986 9.00227C22.4807 8.41439 20.6458 9.96523 20.1465 11.6907Z" fill="#222327"/>
<path d="M29.5171 24.2964C29.5171 28.6852 25.2137 30.3166 19.3436 30.3166C13.4735 30.3166 9.26746 28.6852 9.26746 24.2964C9.26746 19.1912 13.4735 14.6641 19.3436 14.6641C25.2137 14.6641 29.5171 18.806 29.5171 24.2964Z" fill="#F3D6DD"/>
<path d="M17.4004 23.4299C17.4004 24.8673 16.4778 26.4441 15.1885 26.4441C13.8992 26.4441 11.8165 25.2729 11.8165 23.1258C11.8165 21.1087 14.0665 20.3914 16.3914 20.7597C17.8164 20.9855 17.4004 21.9925 17.4004 23.4299Z" fill="#222327"/>
<path d="M16.322 23.2849C16.322 23.5005 16.2571 23.6753 15.9329 23.6753C15.6087 23.6753 15.5438 23.5005 15.5438 23.2849C15.5438 23.0693 15.6735 22.8945 15.9329 22.8945C16.1923 22.8945 16.322 23.0693 16.322 23.2849Z" fill="white"/>
<path d="M21.3221 23.4299C21.3221 24.8673 22.2447 26.4441 23.534 26.4441C24.8233 26.4441 26.906 25.2729 26.906 23.1258C26.906 21.1087 24.6561 20.3914 22.3311 20.7597C20.9061 20.9855 21.3221 21.9925 21.3221 23.4299Z" fill="#222327"/>
<path d="M22.4018 23.2849C22.4018 23.5005 22.4666 23.6753 22.7909 23.6753C23.1151 23.6753 23.1799 23.5005 23.1799 23.2849C23.1799 23.0693 23.0502 22.8945 22.7909 22.8945C22.5315 22.8945 22.4018 23.0693 22.4018 23.2849Z" fill="white"/>
<path d="M17.8753 25.5086C17.7968 25.394 17.6403 25.3647 17.5257 25.4433C17.4111 25.5218 17.3819 25.6783 17.4604 25.7929L17.8753 25.5086ZM19.3178 25.1992L19.5557 25.1177C19.5209 25.016 19.4253 24.9477 19.3178 24.9477C19.2103 24.9477 19.1147 25.016 19.0799 25.1177L19.3178 25.1992ZM21.1753 25.7929C21.2538 25.6783 21.2245 25.5218 21.1099 25.4433C20.9954 25.3647 20.8388 25.394 20.7603 25.5086L21.1753 25.7929ZM17.4604 25.7929C17.5299 25.8943 17.6561 26.0302 17.8253 26.1425C17.9961 26.2558 18.2243 26.3538 18.4928 26.3538V25.8507C18.3489 25.8507 18.2162 25.7982 18.1034 25.7233C17.989 25.6475 17.909 25.5577 17.8753 25.5086L17.4604 25.7929ZM18.4928 26.3538C18.8234 26.3538 19.0692 26.118 19.2222 25.915C19.3837 25.7006 19.4979 25.4496 19.5557 25.2807L19.0799 25.1177C19.0346 25.2498 18.9425 25.4503 18.8205 25.6122C18.6899 25.7855 18.5748 25.8507 18.4928 25.8507V26.3538ZM19.0799 25.2807C19.1377 25.4496 19.2519 25.7006 19.4134 25.915C19.5664 26.118 19.8123 26.3538 20.1428 26.3538V25.8507C20.0608 25.8507 19.9457 25.7855 19.8151 25.6122C19.6931 25.4503 19.601 25.2498 19.5557 25.1177L19.0799 25.2807ZM20.1428 26.3538C20.4114 26.3538 20.6395 26.2558 20.8103 26.1425C20.9796 26.0302 21.1058 25.8943 21.1753 25.7929L20.7603 25.5086C20.7267 25.5577 20.6466 25.6475 20.5323 25.7233C20.4195 25.7982 20.2867 25.8507 20.1428 25.8507V26.3538Z" fill="#222327"/>
<path d="M20.691 24.9673C20.691 25.1765 19.7489 25.4428 19.4319 25.5265C19.3641 25.5444 19.2942 25.5444 19.2265 25.5265C18.9094 25.4428 17.9674 25.1765 17.9674 24.9673C17.9674 24.7158 18.7203 24.4468 19.3292 24.4468C19.938 24.4468 20.691 24.7158 20.691 24.9673Z" fill="#222327"/>
<path d="M19.1664 18.2765C15.3822 18.2765 13.9915 16.9471 13.7665 16.1695L15.5664 14.2129L19.4664 13.5356L24.8663 16.1695C24.5413 16.7966 22.9548 18.2765 19.1664 18.2765Z" fill="#222327"/>
<path fill-rule="evenodd" clip-rule="evenodd" d="M19.69 32.4994C27.5101 32.4994 33.2429 30.2954 33.2429 24.3662C33.2429 16.9487 27.5101 11.353 19.69 11.353C11.87 11.353 6.26685 17.4692 6.26685 24.3662C6.26685 30.2954 11.87 32.4994 19.69 32.4994ZM19.3826 30.2223C25.1348 30.2223 29.3518 28.6083 29.3518 24.2663C29.3518 18.8344 25.1348 14.7367 19.3826 14.7367C13.6303 14.7367 9.50878 19.2156 9.50878 24.2663C9.50878 28.6083 13.6303 30.2223 19.3826 30.2223Z" fill="white"/>
</svg>
